<svg id="Store_near_you" data-name="Store near you" xmlns="http://www.w3.org/2000/svg" width="34.21" height="38" viewBox="0 0 34.21 38">
  <path id="Path_19" data-name="Path 19" d="M18.384,26.4l3.572,5.677,1.294,2.052,4.222,6.711a.755.755,0,0,0,1.279,0L30.922,37.4l.878-1.391,2.459-3.929L37.831,26.4l.038-.068a12.107,12.107,0,1,0-19.523,0Zm9.723-11.8a4.56,4.56,0,1,1-4.54,4.56A4.55,4.55,0,0,1,28.107,14.6Z" transform="translate(-10.976 -7)" fill="#fff"/>
  <path id="Path_20" data-name="Path 20" d="M17.944,40H14.638l-.288.927,3.761.661Z" transform="translate(-10.574 -14.92)" fill="#fff"/>
  <path id="Path_21" data-name="Path 21" d="M22.306,40h-1.2l.2,1.862,2.437.426Z" transform="translate(-12.219 -14.92)" fill="#fff"/>
  <path id="Path_22" data-name="Path 22" d="M44.531,48.556,33.074,46.542l-2.338,3.716a1.511,1.511,0,0,1-2.558,0l-3.261-5.145L21.55,44.52,22.572,54H46.536Z" transform="translate(-12.326 -16.005)" fill="#fff"/>
  <path id="Path_23" data-name="Path 23" d="M37.94,44.066l9.973,1.756L45.779,40H40.49Z" transform="translate(-16.314 -14.92)" fill="#fff"/>
  <path id="Path_24" data-name="Path 24" d="M12.674,43.15,9.36,53.676h8.725l-1.022-9.758Z" transform="translate(-9.36 -15.676)" fill="#fff"/>
</svg>
