<svg xmlns="http://www.w3.org/2000/svg" width="40.609" height="41.329" viewBox="0 0 40.609 41.329">
  <path id="Path_99" data-name="Path 99" d="M21.194,41.8C9.978,41.8.889,31.991.889,20.776a20.3,20.3,0,1,1,40.609,0C41.5,31.991,32.409,41.8,21.194,41.8Zm9.922-12.978L27.322,25.28l.25-.669c1-1.5,2.158-3.21,2.158-5,0-5.044-4.743-9.131-9.787-9.131a9.131,9.131,0,1,0,4.419,17.1l.375-.209L28.573,31.2a1.847,1.847,0,0,0,1.251.459A7.179,7.179,0,0,0,31.75,31.2a.79.79,0,0,1-.133-.879A2.077,2.077,0,0,0,31.116,28.822ZM19.943,25.654a6.087,6.087,0,0,1,0-12.175A6.332,6.332,0,0,1,26.3,19.566,6.332,6.332,0,0,1,19.943,25.654Z" transform="translate(-0.889 -0.471)" fill="#f0f0f0" fill-rule="evenodd"/>
</svg>
