<svg id="Party_order_icon" data-name="Party order icon" xmlns="http://www.w3.org/2000/svg" width="43.801" height="43.223" viewBox="0 0 43.801 43.223">
  <g id="Group_35" data-name="Group 35" transform="translate(0 0)">
    <circle id="Ellipse_10" data-name="Ellipse 10" cx="3.939" cy="3.939" r="3.939" transform="translate(18.308 15.433)" fill="#fff"/>
    <path id="Path_25" data-name="Path 25" d="M44.744,40.779,46.9,35.936a1.5,1.5,0,0,0-.463-1.83,1.469,1.469,0,0,0-2.218.6l-2.17,4.877a2.911,2.911,0,0,1-1.633,1.544,3,3,0,0,1-1.1.19H28.52a3.03,3.03,0,0,1-1.1-.19,2.926,2.926,0,0,1-1.639-1.544L23.616,34.7a1.476,1.476,0,0,0-1.959-.721q-.042.019-.082.041a1.524,1.524,0,0,0-.639,1.959l2.136,4.8a5.728,5.728,0,0,0,.5.918,5.891,5.891,0,0,0,4.843,2.558h.1a.591.591,0,0,1,.585.592v13.34a1.565,1.565,0,0,0,1.565,1.565h6.462A1.565,1.565,0,0,0,38.7,58.193h0V44.826a.592.592,0,0,1,.592-.592,6.053,6.053,0,0,0,1.877-.265A5.891,5.891,0,0,0,44.744,40.779Z" transform="translate(-11.786 -16.535)" fill="#fff"/>
    <path id="Path_26" data-name="Path 26" d="M22.886,55.66a1.476,1.476,0,1,0,1.476,1.476,1.477,1.477,0,0,0-1.476-1.476Z" transform="translate(-11.982 -23.519)" fill="#fff"/>
    <path id="Path_27" data-name="Path 27" d="M65.476,13.022A1.476,1.476,0,1,0,64,11.546h0A1.477,1.477,0,0,0,65.476,13.022Z" transform="translate(-25.6 -8.941)" fill="#fff"/>
    <path id="Path_28" data-name="Path 28" d="M49.186,23.092a1.476,1.476,0,1,0-1.476-1.476,1.477,1.477,0,0,0,1.476,1.476Zm0-2.17a.68.68,0,1,1-.68.68A.68.68,0,0,1,49.186,20.922Z" transform="translate(-20.391 -12.161)" fill="#fff"/>
    <circle id="Ellipse_11" data-name="Ellipse 11" cx="1.476" cy="1.476" r="1.476" transform="translate(36.74 22.836)" fill="#fff"/>
    <path id="Path_29" data-name="Path 29" d="M69.076,58.37a1.476,1.476,0,1,0,1.476,1.476v-.007A1.476,1.476,0,0,0,69.076,58.37Zm0,2.17a.68.68,0,1,1,.68-.68.68.68,0,0,1-.68.68Z" transform="translate(-26.751 -24.385)" fill="#fff"/>
    <path id="Path_30" data-name="Path 30" d="M29.306,25.262a1.476,1.476,0,1,0-1.476-1.476h0A1.477,1.477,0,0,0,29.306,25.262Z" transform="translate(-14.035 -12.855)" fill="#fff"/>
    <path id="Path_31" data-name="Path 31" d="M10.5,45.626A1.476,1.476,0,1,0,9.026,47.1h.007A1.476,1.476,0,0,0,10.5,45.626Zm-1.469.68a.481.481,0,1,1,.014.014H9.033Z" transform="translate(-7.55 -19.838)" fill="#fff"/>
    <circle id="Ellipse_12" data-name="Ellipse 12" cx="0.735" cy="0.735" r="0.735" transform="translate(9.435 27.271)" fill="#fff"/>
    <path id="Path_32" data-name="Path 32" d="M12.788,63.73a.741.741,0,1,0,.735.748v-.007A.741.741,0,0,0,12.788,63.73Z" transform="translate(-8.986 -26.099)" fill="#fff"/>
    <circle id="Ellipse_13" data-name="Ellipse 13" cx="0.735" cy="0.735" r="0.735" transform="translate(33.835 39.468)" fill="#fff"/>
    <circle id="Ellipse_14" data-name="Ellipse 14" cx="0.735" cy="0.735" r="0.735" transform="translate(28.638 2.741)" fill="#fff"/>
    <circle id="Ellipse_15" data-name="Ellipse 15" cx="0.735" cy="0.735" r="0.735" transform="translate(40.236 9.462)" fill="#fff"/>
    <circle id="Ellipse_16" data-name="Ellipse 16" cx="0.735" cy="0.735" r="0.735" transform="translate(21.312 10.891)" fill="#fff"/>
    <path id="Path_33" data-name="Path 33" d="M67.78,51.4a.741.741,0,1,0,.741-.741h0A.741.741,0,0,0,67.78,51.4Z" transform="translate(-26.809 -21.92)" fill="#fff"/>
    <circle id="Ellipse_17" data-name="Ellipse 17" cx="0.735" cy="0.735" r="0.735" transform="translate(2.326 16.305)" fill="#fff"/>
    <path id="Path_34" data-name="Path 34" d="M55.477,57.633l-.98-.5a.1.1,0,0,1-.054-.075l-.122-1.1a.088.088,0,0,0-.156-.054l-.789.769a.089.089,0,0,1-.088,0l-1.082-.224a.1.1,0,0,0-.11.077.093.093,0,0,0,.008.059l.5.986a.1.1,0,0,1,0,.088l-.544,1.02a.095.095,0,0,0,.1.136l1.1-.163a.1.1,0,0,1,.082,0l.728.809a.1.1,0,0,0,.163-.048l.177-1.088a.1.1,0,0,1,.054-.068l1.007-.456a.1.1,0,0,0,.059-.121A.1.1,0,0,0,55.477,57.633Z" transform="translate(-21.778 -23.587)" fill="#fff"/>
    <path id="Path_35" data-name="Path 35" d="M57.452,26.134a.1.1,0,0,1,0-.088l.388-1.034a.089.089,0,0,0-.04-.118.086.086,0,0,0-.069,0l-1.054.333a.08.08,0,0,1-.088,0l-.864-.68a.1.1,0,0,0-.133.024.1.1,0,0,0-.017.051v1.1a.094.094,0,0,1-.041.082l-.925.605a.1.1,0,0,0-.033.131.094.094,0,0,0,.033.033l1.048.347a.1.1,0,0,1,.054.068L56,28.045a.1.1,0,0,0,.119.063.1.1,0,0,0,.044-.029l.68-.891a.074.074,0,0,1,.075,0l1.109.048a.088.088,0,0,0,.093-.083.086.086,0,0,0-.018-.06Z" transform="translate(-22.582 -13.563)" fill="#fff"/>
    <path id="Path_36" data-name="Path 36" d="M38.482,14.238a.081.081,0,0,1,0,.075l-.1,1.082a.089.089,0,0,0,.073.1.091.091,0,0,0,.063-.014l.946-.578a.087.087,0,0,1,.082,0l1.007.463a.1.1,0,0,0,.129-.109l-.258-1.075a.087.087,0,0,1,0-.082l.755-.809a.1.1,0,0,0-.061-.156l-1.1-.088A.1.1,0,0,1,39.944,13l-.537-.966a.089.089,0,0,0-.116-.048.086.086,0,0,0-.048.048l-.429,1.02a.081.081,0,0,1-.068.054l-1.061.245a.1.1,0,0,0-.069.116.091.091,0,0,0,.029.048Z" transform="translate(-17.163 -9.551)" fill="#fff"/>
    <path id="Path_37" data-name="Path 37" d="M13.435,55.733a.1.1,0,0,1,0-.088l.4-1.027a.1.1,0,0,0-.059-.121.094.094,0,0,0-.056,0l-1.054.327a.111.111,0,0,1-.088,0l-.857-.68a.094.094,0,0,0-.133.023.089.089,0,0,0-.017.045v1.109a.1.1,0,0,1-.041.075l-.932.6a.1.1,0,0,0-.029.141.1.1,0,0,0,.029.029l1.048.354a.1.1,0,0,1,.061.061l.286,1.068a.1.1,0,0,0,.131.033.094.094,0,0,0,.033-.033l.68-.884a.094.094,0,0,1,.082-.041l1.1.061a.1.1,0,0,0,.082-.143Z" transform="translate(-8.51 -23.027)" fill="#fff"/>
    <path id="Path_38" data-name="Path 38" d="M15.029,22.062l-.231.68a.265.265,0,0,0,.245.354h.837a.265.265,0,0,0,.267-.264.252.252,0,0,0-.015-.09l-.238-.68c2.966-.265,5.306-3.218,5.306-6.8,0-3.782-2.571-6.85-5.734-6.85S9.73,11.451,9.73,15.233C9.73,18.845,12.063,21.8,15.029,22.062Zm1.626-11.938a.538.538,0,0,1,.723-.235l.018.01a5.017,5.017,0,0,1,1.524,1.279,6.112,6.112,0,0,1,1.007,1.85,7.022,7.022,0,0,1,0,4.483.524.524,0,0,1-.5.354.51.51,0,0,1-.17,0,.531.531,0,0,1-.337-.671l0-.01a5.894,5.894,0,0,0,0-3.789,4.762,4.762,0,0,0-.843-1.551,3.852,3.852,0,0,0-1.2-.993.53.53,0,0,1-.232-.714Z" transform="translate(-8.247 -8.41)" fill="#fff"/>
    <path id="Path_39" data-name="Path 39" d="M17.26,42.277A.272.272,0,0,0,17.525,42v-.007a4.765,4.765,0,0,0-.83-2.53,4.672,4.672,0,0,1,0-5.1,4.818,4.818,0,0,0,.837-2.816H17a4.327,4.327,0,0,1-.762,2.544,5.19,5.19,0,0,0,0,5.632,4.306,4.306,0,0,1,.755,2.333A.265.265,0,0,0,17.26,42.277Z" transform="translate(-10.063 -15.809)" fill="#fff"/>
    <path id="Path_40" data-name="Path 40" d="M33.236,16.758a.412.412,0,0,0,.129,0,.389.389,0,0,0,.146-.75L33.495,16a2.53,2.53,0,0,1-1.585-3.1l.2-.68a.395.395,0,1,0-.755-.218l-.2.68a3.32,3.32,0,0,0,2.082,4.081Z" transform="translate(-15.053 -9.459)" fill="#fff"/>
    <path id="Path_41" data-name="Path 41" d="M64.346,34.556h0A3.333,3.333,0,0,0,67.427,31.2v-.735a.388.388,0,0,0-.388-.388h0a.388.388,0,0,0-.388.388v.748A2.538,2.538,0,0,1,64.3,33.781a.388.388,0,0,0,0,.775Z" transform="translate(-25.572 -15.339)" fill="#fff"/>
    <path id="Path_42" data-name="Path 42" d="M64.4,62.389,64,61.927a2.474,2.474,0,0,1-.626-1.456,2.541,2.541,0,0,1,.374-1.537,3.514,3.514,0,0,0,.306-.619.387.387,0,0,0-.235-.5h0a.38.38,0,0,0-.492.219l0,.012a3.035,3.035,0,0,1-.231.469,3.286,3.286,0,0,0,.327,3.925l.408.463a2.614,2.614,0,0,1,.578,1.15,2.456,2.456,0,0,1-.082,1.292.394.394,0,0,0,.252.5.388.388,0,0,0,.49-.245,3.313,3.313,0,0,0-.68-3.224Z" transform="translate(-25.147 -24.2)" fill="#fff"/>
    <path id="Path_43" data-name="Path 43" d="M59.595,12.878a1.6,1.6,0,0,1-.333-.762,1.635,1.635,0,0,1,.075-.755,1.684,1.684,0,0,1,.442-.68.39.39,0,0,0-.524-.578h0a2.434,2.434,0,0,0-.68.973,2.373,2.373,0,0,0,.415,2.326,1.6,1.6,0,0,1,.34.769,1.677,1.677,0,0,1-.088.8,1.619,1.619,0,0,1-.442.68.388.388,0,0,0-.045.546l0,0a.4.4,0,0,0,.3.129.421.421,0,0,0,.258-.1,2.421,2.421,0,0,0,.68-.98,2.4,2.4,0,0,0-.4-2.374Z" transform="translate(-23.821 -8.919)" fill="#fff"/>
    <path id="Path_44" data-name="Path 44" d="M21.4,66.351a2.391,2.391,0,0,0-1.231-.218,1.539,1.539,0,0,1-.823-.143,1.677,1.677,0,0,1-.612-.5,1.62,1.62,0,0,1-.3-.735.395.395,0,0,0-.775.116,2.379,2.379,0,0,0,.449,1.082,2.468,2.468,0,0,0,.9.748,2.336,2.336,0,0,0,1.224.211,1.645,1.645,0,0,1,.83.15,1.7,1.7,0,0,1,.612.51,1.642,1.642,0,0,1,.293.735.394.394,0,0,0,.388.34h.054a.4.4,0,0,0,.333-.442,2.367,2.367,0,0,0-.442-1.1A2.421,2.421,0,0,0,21.4,66.351Z" transform="translate(-10.783 -26.332)" fill="#fff"/>
  </g>
</svg>
